# xmcd CD database file
#
# Track frame offsets:
#	150
#	20560
#	41870
#	59045
#	75127
#	97262
#	118165
#	138987
#	160040
#	179015
#
# Disc length: 2716 seconds
#
# Revision: 0
# Processed by: cddbd v1.5PL3 Copyright (c) Steve Scherf et al.
# Submitted via: CDex 1.50
#
DISCID=8a0a9a0a
DTITLE=吉野千代乃 - モンタージュ
DYEAR=1900
DGENRE=Rock
TTITLE0=とがったKissの警告
TTITLE1=春・ma・maison
TTITLE2=Make Me 太陽
TTITLE3=Dance In The Champagne
TTITLE4=帰れないエトランゼ
TTITLE5=月夜のモノローグ
TTITLE6=ホロスコープガール
TTITLE7=涙はFineで終わらない
TTITLE8=ジ・ン・ク・ス
TTITLE9=日付変更線
EXTD=
EXTT0=
EXTT1=
EXTT2=
EXTT3=
EXTT4=
EXTT5=
EXTT6=
EXTT7=
EXTT8=
EXTT9=
PLAYORDER=
